<mxfile host="app.diagrams.net" modified="2022-08-24T07:17:45.447Z" agent="5.0 (Macintosh; Intel Mac OS X 10_15_7) AppleWebKit/537.36 (KHTML, like Gecko) Chrome/104.0.0.0 Safari/537.36" etag="DzSA7mzDTiP06wH4wKIC" version="20.2.6" type="github">
  <diagram id="KjbMnjRFdFkMxTJBGYuo" name="第 1 页">
    <mxGraphModel dx="1426" dy="624" grid="1" gridSize="10" guides="1" tooltips="1" connect="1" arrows="1" fold="1" page="1" pageScale="1" pageWidth="827" pageHeight="1169" math="0" shadow="0">
      <root>
        <mxCell id="0" />
        <mxCell id="1" parent="0" />
        <mxCell id="2YgzNVl3kyeOXIHoWf1v-1" value="" style="verticalLabelPosition=bottom;html=1;verticalAlign=top;align=center;strokeColor=none;fillColor=#97D077;shape=mxgraph.azure.user;" vertex="1" parent="1">
          <mxGeometry x="90" y="270" width="70" height="100" as="geometry" />
        </mxCell>
        <mxCell id="2YgzNVl3kyeOXIHoWf1v-2" value="&lt;font style=&quot;font-size: 24px;&quot;&gt;产品管理&lt;/font&gt;" style="ellipse;whiteSpace=wrap;html=1;fillColor=none;strokeColor=#97D077;" vertex="1" parent="1">
          <mxGeometry x="280" y="140" width="120" height="80" as="geometry" />
        </mxCell>
        <mxCell id="2YgzNVl3kyeOXIHoWf1v-5" value="&lt;span style=&quot;font-size: 24px;&quot;&gt;用户管理&lt;/span&gt;" style="ellipse;whiteSpace=wrap;html=1;fillColor=none;strokeColor=#97D077;" vertex="1" parent="1">
          <mxGeometry x="280" y="280" width="120" height="80" as="geometry" />
        </mxCell>
        <mxCell id="2YgzNVl3kyeOXIHoWf1v-6" value="&lt;span style=&quot;font-size: 24px;&quot;&gt;消息管理&lt;/span&gt;" style="ellipse;whiteSpace=wrap;html=1;fillColor=none;strokeColor=#97D077;" vertex="1" parent="1">
          <mxGeometry x="280" y="430" width="120" height="80" as="geometry" />
        </mxCell>
        <mxCell id="2YgzNVl3kyeOXIHoWf1v-8" value="" style="endArrow=classic;html=1;rounded=0;fontSize=24;entryX=0;entryY=1;entryDx=0;entryDy=0;strokeColor=#3399FF;" edge="1" parent="1" target="2YgzNVl3kyeOXIHoWf1v-2">
          <mxGeometry width="50" height="50" relative="1" as="geometry">
            <mxPoint x="160" y="320" as="sourcePoint" />
            <mxPoint x="440" y="290" as="targetPoint" />
          </mxGeometry>
        </mxCell>
        <mxCell id="2YgzNVl3kyeOXIHoWf1v-9" value="" style="endArrow=classic;html=1;rounded=0;fontSize=24;strokeColor=#3399FF;" edge="1" parent="1" target="2YgzNVl3kyeOXIHoWf1v-5">
          <mxGeometry width="50" height="50" relative="1" as="geometry">
            <mxPoint x="160" y="319.06270675224107" as="sourcePoint" />
            <mxPoint x="297.57359312880726" y="230.0042712474619" as="targetPoint" />
          </mxGeometry>
        </mxCell>
        <mxCell id="2YgzNVl3kyeOXIHoWf1v-10" value="" style="endArrow=classic;html=1;rounded=0;fontSize=24;strokeColor=#3399FF;" edge="1" parent="1" target="2YgzNVl3kyeOXIHoWf1v-6">
          <mxGeometry width="50" height="50" relative="1" as="geometry">
            <mxPoint x="160" y="320" as="sourcePoint" />
            <mxPoint x="290" y="330" as="targetPoint" />
          </mxGeometry>
        </mxCell>
      </root>
    </mxGraphModel>
  </diagram>
</mxfile>
